<mxfile host="app.diagrams.net" modified="2021-09-14T17:16:13.916Z" agent="5.0 (Windows NT 10.0; Win64; x64) AppleWebKit/537.36 (KHTML, like Gecko) Chrome/86.0.4240.183 Safari/537.36" etag="3m5kpfKqF2T8we12T97r" version="15.2.5" type="github">
  <diagram id="Rg-mKbz8_8ZVLP1hjY62" name="Page-1">
    <mxGraphModel dx="2370" dy="1323" grid="1" gridSize="10" guides="1" tooltips="1" connect="1" arrows="1" fold="1" page="1" pageScale="1" pageWidth="827" pageHeight="1169" math="0" shadow="0">
      <root>
        <mxCell id="0" />
        <mxCell id="1" parent="0" />
        <mxCell id="Q6WeUYieFbjheVexD12R-6" style="edgeStyle=orthogonalEdgeStyle;rounded=0;orthogonalLoop=1;jettySize=auto;html=1;exitX=1;exitY=1;exitDx=0;exitDy=0;exitPerimeter=0;" edge="1" parent="1" source="Q6WeUYieFbjheVexD12R-1" target="Q6WeUYieFbjheVexD12R-7">
          <mxGeometry relative="1" as="geometry">
            <mxPoint x="300" y="280" as="targetPoint" />
          </mxGeometry>
        </mxCell>
        <mxCell id="Q6WeUYieFbjheVexD12R-1" value="Actor" style="shape=umlActor;verticalLabelPosition=bottom;verticalAlign=top;html=1;outlineConnect=0;" vertex="1" parent="1">
          <mxGeometry x="110" y="100" width="30" height="60" as="geometry" />
        </mxCell>
        <mxCell id="Q6WeUYieFbjheVexD12R-4" value="" style="endArrow=none;dashed=1;html=1;dashPattern=1 3;strokeWidth=2;" edge="1" parent="1">
          <mxGeometry width="50" height="50" relative="1" as="geometry">
            <mxPoint x="510" y="1370" as="sourcePoint" />
            <mxPoint x="490" y="70" as="targetPoint" />
          </mxGeometry>
        </mxCell>
        <mxCell id="Q6WeUYieFbjheVexD12R-5" value="" style="endArrow=none;dashed=1;html=1;dashPattern=1 3;strokeWidth=2;" edge="1" parent="1">
          <mxGeometry width="50" height="50" relative="1" as="geometry">
            <mxPoint x="220" y="1360" as="sourcePoint" />
            <mxPoint x="220" y="80" as="targetPoint" />
          </mxGeometry>
        </mxCell>
        <mxCell id="Q6WeUYieFbjheVexD12R-11" value="" style="edgeStyle=orthogonalEdgeStyle;rounded=0;orthogonalLoop=1;jettySize=auto;html=1;" edge="1" parent="1" source="Q6WeUYieFbjheVexD12R-7" target="Q6WeUYieFbjheVexD12R-10">
          <mxGeometry relative="1" as="geometry" />
        </mxCell>
        <mxCell id="Q6WeUYieFbjheVexD12R-7" value="Включить фотоаппарат" style="rounded=1;whiteSpace=wrap;html=1;" vertex="1" parent="1">
          <mxGeometry x="80" y="240" width="120" height="60" as="geometry" />
        </mxCell>
        <mxCell id="Q6WeUYieFbjheVexD12R-8" value="Фотоаппарат" style="text;html=1;strokeColor=none;fillColor=none;align=center;verticalAlign=middle;whiteSpace=wrap;rounded=0;" vertex="1" parent="1">
          <mxGeometry x="330" y="120" width="40" height="20" as="geometry" />
        </mxCell>
        <mxCell id="Q6WeUYieFbjheVexD12R-9" value="Оборудование" style="text;html=1;strokeColor=none;fillColor=none;align=center;verticalAlign=middle;whiteSpace=wrap;rounded=0;" vertex="1" parent="1">
          <mxGeometry x="590" y="120" width="40" height="20" as="geometry" />
        </mxCell>
        <mxCell id="Q6WeUYieFbjheVexD12R-13" value="" style="edgeStyle=orthogonalEdgeStyle;rounded=0;orthogonalLoop=1;jettySize=auto;html=1;" edge="1" parent="1" source="Q6WeUYieFbjheVexD12R-10" target="Q6WeUYieFbjheVexD12R-12">
          <mxGeometry relative="1" as="geometry">
            <Array as="points">
              <mxPoint x="350" y="410" />
            </Array>
          </mxGeometry>
        </mxCell>
        <mxCell id="Q6WeUYieFbjheVexD12R-17" style="edgeStyle=orthogonalEdgeStyle;rounded=0;orthogonalLoop=1;jettySize=auto;html=1;exitX=0;exitY=1;exitDx=0;exitDy=0;entryX=0;entryY=0.5;entryDx=0;entryDy=0;" edge="1" parent="1" source="Q6WeUYieFbjheVexD12R-10" target="Q6WeUYieFbjheVexD12R-18">
          <mxGeometry relative="1" as="geometry">
            <mxPoint x="30" y="370" as="targetPoint" />
            <Array as="points">
              <mxPoint x="330" y="320" />
              <mxPoint x="60" y="320" />
              <mxPoint x="60" y="1460" />
            </Array>
          </mxGeometry>
        </mxCell>
        <mxCell id="Q6WeUYieFbjheVexD12R-10" value="Фотоаппарат заряжен" style="rhombus;whiteSpace=wrap;html=1;rounded=1;" vertex="1" parent="1">
          <mxGeometry x="310" y="230" width="80" height="80" as="geometry" />
        </mxCell>
        <mxCell id="Q6WeUYieFbjheVexD12R-16" value="" style="edgeStyle=orthogonalEdgeStyle;rounded=0;orthogonalLoop=1;jettySize=auto;html=1;entryX=0;entryY=0.5;entryDx=0;entryDy=0;" edge="1" parent="1" source="Q6WeUYieFbjheVexD12R-12" target="Q6WeUYieFbjheVexD12R-21">
          <mxGeometry relative="1" as="geometry">
            <mxPoint x="310" y="510" as="targetPoint" />
            <Array as="points">
              <mxPoint x="140" y="460" />
              <mxPoint x="280" y="460" />
              <mxPoint x="280" y="510" />
            </Array>
          </mxGeometry>
        </mxCell>
        <mxCell id="Q6WeUYieFbjheVexD12R-12" value="Проверить настройки фотосъемки" style="whiteSpace=wrap;html=1;rounded=1;" vertex="1" parent="1">
          <mxGeometry x="80" y="380" width="120" height="60" as="geometry" />
        </mxCell>
        <mxCell id="Q6WeUYieFbjheVexD12R-14" value="Да" style="text;html=1;strokeColor=none;fillColor=none;align=center;verticalAlign=middle;whiteSpace=wrap;rounded=0;" vertex="1" parent="1">
          <mxGeometry x="350" y="330" width="40" height="20" as="geometry" />
        </mxCell>
        <mxCell id="Q6WeUYieFbjheVexD12R-18" value="" style="ellipse;html=1;shape=endState;fillColor=#000000;strokeColor=#ff0000;" vertex="1" parent="1">
          <mxGeometry x="80" y="1440" width="40" height="40" as="geometry" />
        </mxCell>
        <mxCell id="Q6WeUYieFbjheVexD12R-19" value="Конец" style="text;html=1;strokeColor=none;fillColor=none;align=center;verticalAlign=middle;whiteSpace=wrap;rounded=0;" vertex="1" parent="1">
          <mxGeometry x="80" y="1480" width="40" height="20" as="geometry" />
        </mxCell>
        <mxCell id="Q6WeUYieFbjheVexD12R-20" value="Нет" style="text;html=1;strokeColor=none;fillColor=none;align=center;verticalAlign=middle;whiteSpace=wrap;rounded=0;" vertex="1" parent="1">
          <mxGeometry x="260" y="300" width="40" height="20" as="geometry" />
        </mxCell>
        <mxCell id="Q6WeUYieFbjheVexD12R-23" value="" style="edgeStyle=orthogonalEdgeStyle;rounded=0;orthogonalLoop=1;jettySize=auto;html=1;" edge="1" parent="1" source="Q6WeUYieFbjheVexD12R-21" target="Q6WeUYieFbjheVexD12R-22">
          <mxGeometry relative="1" as="geometry" />
        </mxCell>
        <mxCell id="Q6WeUYieFbjheVexD12R-21" value="Сделать тестовый снимок" style="rounded=1;whiteSpace=wrap;html=1;" vertex="1" parent="1">
          <mxGeometry x="290" y="480" width="120" height="60" as="geometry" />
        </mxCell>
        <mxCell id="Q6WeUYieFbjheVexD12R-25" value="" style="edgeStyle=orthogonalEdgeStyle;rounded=0;orthogonalLoop=1;jettySize=auto;html=1;" edge="1" parent="1" source="Q6WeUYieFbjheVexD12R-22" target="Q6WeUYieFbjheVexD12R-24">
          <mxGeometry relative="1" as="geometry" />
        </mxCell>
        <mxCell id="Q6WeUYieFbjheVexD12R-29" value="" style="edgeStyle=orthogonalEdgeStyle;rounded=0;orthogonalLoop=1;jettySize=auto;html=1;" edge="1" parent="1" source="Q6WeUYieFbjheVexD12R-22" target="Q6WeUYieFbjheVexD12R-28">
          <mxGeometry relative="1" as="geometry" />
        </mxCell>
        <mxCell id="Q6WeUYieFbjheVexD12R-22" value="Настройки съемки в порядке" style="rhombus;whiteSpace=wrap;html=1;rounded=1;" vertex="1" parent="1">
          <mxGeometry x="310" y="610" width="80" height="80" as="geometry" />
        </mxCell>
        <mxCell id="Q6WeUYieFbjheVexD12R-27" style="edgeStyle=orthogonalEdgeStyle;rounded=0;orthogonalLoop=1;jettySize=auto;html=1;exitX=0.5;exitY=0;exitDx=0;exitDy=0;entryX=0;entryY=0.75;entryDx=0;entryDy=0;" edge="1" parent="1" source="Q6WeUYieFbjheVexD12R-24" target="Q6WeUYieFbjheVexD12R-21">
          <mxGeometry relative="1" as="geometry" />
        </mxCell>
        <mxCell id="Q6WeUYieFbjheVexD12R-24" value="Изменить настройки" style="whiteSpace=wrap;html=1;rounded=1;" vertex="1" parent="1">
          <mxGeometry x="80" y="620" width="120" height="60" as="geometry" />
        </mxCell>
        <mxCell id="Q6WeUYieFbjheVexD12R-26" value="Нет" style="text;html=1;strokeColor=none;fillColor=none;align=center;verticalAlign=middle;whiteSpace=wrap;rounded=0;" vertex="1" parent="1">
          <mxGeometry x="250" y="630" width="40" height="20" as="geometry" />
        </mxCell>
        <mxCell id="Q6WeUYieFbjheVexD12R-34" value="" style="edgeStyle=orthogonalEdgeStyle;rounded=0;orthogonalLoop=1;jettySize=auto;html=1;" edge="1" parent="1" source="Q6WeUYieFbjheVexD12R-28" target="Q6WeUYieFbjheVexD12R-33">
          <mxGeometry relative="1" as="geometry">
            <Array as="points">
              <mxPoint x="610" y="720" />
              <mxPoint x="450" y="720" />
              <mxPoint x="450" y="820" />
            </Array>
          </mxGeometry>
        </mxCell>
        <mxCell id="Q6WeUYieFbjheVexD12R-28" value="Выставить оборудование" style="whiteSpace=wrap;html=1;rounded=1;" vertex="1" parent="1">
          <mxGeometry x="550" y="620" width="120" height="60" as="geometry" />
        </mxCell>
        <mxCell id="Q6WeUYieFbjheVexD12R-30" value="Да" style="text;html=1;strokeColor=none;fillColor=none;align=center;verticalAlign=middle;whiteSpace=wrap;rounded=0;" vertex="1" parent="1">
          <mxGeometry x="430" y="630" width="40" height="20" as="geometry" />
        </mxCell>
        <mxCell id="Q6WeUYieFbjheVexD12R-36" value="" style="edgeStyle=orthogonalEdgeStyle;rounded=0;orthogonalLoop=1;jettySize=auto;html=1;" edge="1" parent="1" source="Q6WeUYieFbjheVexD12R-33" target="Q6WeUYieFbjheVexD12R-35">
          <mxGeometry relative="1" as="geometry" />
        </mxCell>
        <mxCell id="Q6WeUYieFbjheVexD12R-33" value="&lt;span&gt;Сделать тестовый снимок&lt;/span&gt;" style="whiteSpace=wrap;html=1;rounded=1;" vertex="1" parent="1">
          <mxGeometry x="290" y="790" width="120" height="60" as="geometry" />
        </mxCell>
        <mxCell id="Q6WeUYieFbjheVexD12R-37" style="edgeStyle=orthogonalEdgeStyle;rounded=0;orthogonalLoop=1;jettySize=auto;html=1;exitX=1;exitY=0.5;exitDx=0;exitDy=0;entryX=0.75;entryY=1;entryDx=0;entryDy=0;" edge="1" parent="1" source="Q6WeUYieFbjheVexD12R-35" target="Q6WeUYieFbjheVexD12R-28">
          <mxGeometry relative="1" as="geometry" />
        </mxCell>
        <mxCell id="Q6WeUYieFbjheVexD12R-42" value="" style="edgeStyle=orthogonalEdgeStyle;rounded=0;orthogonalLoop=1;jettySize=auto;html=1;" edge="1" parent="1" source="Q6WeUYieFbjheVexD12R-35" target="Q6WeUYieFbjheVexD12R-41">
          <mxGeometry relative="1" as="geometry">
            <Array as="points">
              <mxPoint x="350" y="1030" />
            </Array>
          </mxGeometry>
        </mxCell>
        <mxCell id="Q6WeUYieFbjheVexD12R-35" value="Оборудование выставлено правильно" style="rhombus;whiteSpace=wrap;html=1;rounded=1;" vertex="1" parent="1">
          <mxGeometry x="310" y="920" width="80" height="80" as="geometry" />
        </mxCell>
        <mxCell id="Q6WeUYieFbjheVexD12R-38" value="Нет" style="text;html=1;strokeColor=none;fillColor=none;align=center;verticalAlign=middle;whiteSpace=wrap;rounded=0;" vertex="1" parent="1">
          <mxGeometry x="430" y="940" width="40" height="20" as="geometry" />
        </mxCell>
        <mxCell id="Q6WeUYieFbjheVexD12R-39" value="Объект съемки" style="text;html=1;strokeColor=none;fillColor=none;align=center;verticalAlign=middle;whiteSpace=wrap;rounded=0;" vertex="1" parent="1">
          <mxGeometry x="840" y="120" width="90" height="20" as="geometry" />
        </mxCell>
        <mxCell id="Q6WeUYieFbjheVexD12R-40" value="" style="endArrow=none;dashed=1;html=1;dashPattern=1 3;strokeWidth=2;" edge="1" parent="1">
          <mxGeometry width="50" height="50" relative="1" as="geometry">
            <mxPoint x="790" y="1360" as="sourcePoint" />
            <mxPoint x="760" y="60" as="targetPoint" />
          </mxGeometry>
        </mxCell>
        <mxCell id="Q6WeUYieFbjheVexD12R-45" value="" style="edgeStyle=orthogonalEdgeStyle;rounded=0;orthogonalLoop=1;jettySize=auto;html=1;entryX=1;entryY=0.5;entryDx=0;entryDy=0;" edge="1" parent="1" source="Q6WeUYieFbjheVexD12R-41" target="Q6WeUYieFbjheVexD12R-44">
          <mxGeometry relative="1" as="geometry">
            <Array as="points">
              <mxPoint x="900" y="1160" />
            </Array>
          </mxGeometry>
        </mxCell>
        <mxCell id="Q6WeUYieFbjheVexD12R-41" value="Поставить объект на нужное место" style="whiteSpace=wrap;html=1;rounded=1;" vertex="1" parent="1">
          <mxGeometry x="840" y="1000" width="120" height="60" as="geometry" />
        </mxCell>
        <mxCell id="Q6WeUYieFbjheVexD12R-43" value="Да" style="text;html=1;strokeColor=none;fillColor=none;align=center;verticalAlign=middle;whiteSpace=wrap;rounded=0;" vertex="1" parent="1">
          <mxGeometry x="430" y="1010" width="40" height="20" as="geometry" />
        </mxCell>
        <mxCell id="Q6WeUYieFbjheVexD12R-47" value="" style="edgeStyle=orthogonalEdgeStyle;rounded=0;orthogonalLoop=1;jettySize=auto;html=1;" edge="1" parent="1" source="Q6WeUYieFbjheVexD12R-44" target="Q6WeUYieFbjheVexD12R-46">
          <mxGeometry relative="1" as="geometry" />
        </mxCell>
        <mxCell id="Q6WeUYieFbjheVexD12R-44" value="Сделать тестовый снимок" style="whiteSpace=wrap;html=1;rounded=1;" vertex="1" parent="1">
          <mxGeometry x="294" y="1130" width="120" height="60" as="geometry" />
        </mxCell>
        <mxCell id="Q6WeUYieFbjheVexD12R-48" style="edgeStyle=orthogonalEdgeStyle;rounded=0;orthogonalLoop=1;jettySize=auto;html=1;exitX=0.5;exitY=1;exitDx=0;exitDy=0;entryX=1;entryY=0.5;entryDx=0;entryDy=0;" edge="1" parent="1" source="Q6WeUYieFbjheVexD12R-46" target="Q6WeUYieFbjheVexD12R-18">
          <mxGeometry relative="1" as="geometry" />
        </mxCell>
        <mxCell id="Q6WeUYieFbjheVexD12R-50" style="edgeStyle=orthogonalEdgeStyle;rounded=0;orthogonalLoop=1;jettySize=auto;html=1;exitX=1;exitY=0.5;exitDx=0;exitDy=0;entryX=0.75;entryY=1;entryDx=0;entryDy=0;" edge="1" parent="1" source="Q6WeUYieFbjheVexD12R-46" target="Q6WeUYieFbjheVexD12R-41">
          <mxGeometry relative="1" as="geometry" />
        </mxCell>
        <mxCell id="Q6WeUYieFbjheVexD12R-46" value="Снимок получился" style="rhombus;whiteSpace=wrap;html=1;rounded=1;" vertex="1" parent="1">
          <mxGeometry x="314" y="1280" width="80" height="80" as="geometry" />
        </mxCell>
        <mxCell id="Q6WeUYieFbjheVexD12R-49" value="Да" style="text;html=1;strokeColor=none;fillColor=none;align=center;verticalAlign=middle;whiteSpace=wrap;rounded=0;" vertex="1" parent="1">
          <mxGeometry x="354" y="1390" width="40" height="20" as="geometry" />
        </mxCell>
        <mxCell id="Q6WeUYieFbjheVexD12R-51" value="Нет" style="text;html=1;strokeColor=none;fillColor=none;align=center;verticalAlign=middle;whiteSpace=wrap;rounded=0;" vertex="1" parent="1">
          <mxGeometry x="430" y="1300" width="40" height="20" as="geometry" />
        </mxCell>
      </root>
    </mxGraphModel>
  </diagram>
</mxfile>
